<?xml version="1.0" encoding="iso-8859-1"?>
<!-- Generator: Adobe Illustrator 17.1.0, SVG Export Plug-In . SVG Version: 6.00 Build 0)  -->
<!DOCTYPE svg PUBLIC "-//W3C//DTD SVG 1.1//EN" "http://www.w3.org/Graphics/SVG/1.1/DTD/svg11.dtd">
<svg version="1.1" id="Capa_1" xmlns="http://www.w3.org/2000/svg" xmlns:xlink="http://www.w3.org/1999/xlink" x="0px" y="0px"
	 viewBox="0 0 465 465" style="enable-background:new 0 0 465 465;" xml:space="preserve">
<g>
	<path d="M354.737,119.358c-1.43-3.098-0.587-16.235,0.09-26.809c0.63-9.836,1.345-20.985,1.345-32.996c0-4.142-3.358-7.5-7.5-7.5
		h-21.204c-3.48-16.911-18.487-29.667-36.418-29.667c-4.818,0-9.521,0.922-13.914,2.705C267.762,9.623,251.008,0,232.497,0
		c-18.507,0-35.26,9.625-44.634,25.09c-4.392-1.782-9.095-2.705-13.913-2.705c-17.93,0-32.935,12.756-36.415,29.667h-21.208
		c-4.142,0-7.5,3.358-7.5,7.5c0,12.011,0.715,23.16,1.346,32.997c0.678,10.573,1.521,23.71,0.091,26.808
		c-17.965,23.559-18.132,53.646-0.474,80.608c2.051,6.16,4.811,42.995,7.731,81.959c3.246,43.314,7.285,97.221,13.099,153.15
		c1.07,10.275,12.719,17.879,35.612,23.245c18.112,4.245,42.266,6.68,66.266,6.68c23.082,0,47.035-2.431,65.718-6.668
		c23.946-5.431,36.101-13.04,37.161-23.258c6.076-58.427,10.101-116.446,13.04-158.81c2.51-36.185,4.883-70.392,6.805-76.313
		C372.872,172.987,372.698,142.909,354.737,119.358z M173.949,37.386c4.594,0,9.017,1.412,12.791,4.083
		c1.866,1.321,4.233,1.718,6.43,1.079c2.196-0.64,3.979-2.246,4.845-4.363C203.771,24.1,217.305,15,232.497,15
		c15.194,0,28.731,9.1,34.487,23.184c0.865,2.117,2.649,3.724,4.844,4.363c2.197,0.64,4.563,0.243,6.43-1.079
		c3.775-2.671,8.198-4.083,12.792-4.083c9.597,0,17.787,6.124,20.869,14.667H153.082C156.165,43.51,164.354,37.386,173.949,37.386z
		 M342.419,192.115c-3.269,4.937-4.53,19.13-8.968,83.111c-3.091,44.552-6.936,99.98-12.972,158.072
		c-0.959,1.688-7.65,6.65-28.299,11c-17.206,3.624-38.959,5.703-59.684,5.703c-22.099,0-43.617-2.051-60.592-5.774
		c-19.506-4.279-25.676-9.309-26.38-10.83c-5.784-55.669-9.811-109.405-13.047-152.593c-5.13-68.461-6.547-83.628-9.9-88.692
		c-14.494-21.867-14.603-45.112-0.297-63.777c4.814-6.285,4.079-17.75,2.861-36.746c-0.481-7.5-1.012-15.781-1.222-24.537H341.08
		c-0.21,8.755-0.741,17.036-1.222,24.537c-1.218,18.995-1.953,30.459,2.862,36.748C357.026,146.999,356.916,170.244,342.419,192.115
		z"/>
	<path d="M324.887,90.656l0.002-0.027c0.264-4.134-2.873-7.686-7.007-7.95c-4.121-0.251-7.7,2.885-7.964,7.019
		c-0.626,9.779-1.181,18.461-0.851,26.34H156.3c0.117-6.468-0.349-13.403-0.857-20.909c-0.12-1.771-0.243-3.59-0.363-5.459
		c-0.265-4.134-3.831-7.26-7.964-7.005c-4.134,0.266-7.27,3.832-7.004,7.965c0.121,1.888,0.245,3.725,0.366,5.512
		c0.73,10.796,1.292,19.239,0.44,26.27c-0.03,0.201-0.054,0.405-0.068,0.611c-0.746,5.544-2.42,10.202-5.666,14.44
		c-10.663,13.911-10.697,30.38-0.099,46.37c5.549,8.38,6.405,17.956,11.429,90.395c0.274,3.956,3.568,6.981,7.474,6.981
		c0.174,0,0.35-0.006,0.527-0.019c4.132-0.287,7.25-3.869,6.963-8.001c-5.264-75.888-5.94-85.639-13.889-97.641
		c-6.984-10.538-7.153-20.281-0.499-28.962c3.744-4.887,6.066-10.041,7.445-15.547h156.68c1.516,5.512,3.937,10.644,7.686,15.539
		c6.391,8.337,5.905,17.81-1.488,28.963c-7.953,12.01-8.629,21.757-13.891,97.614c-0.543,7.828-1.044,15.286-1.534,22.593
		c-2,29.809-3.894,58.027-7.916,98.935c-11.742,2.496-37.553,5.435-61.576,5.435c-24.022,0-49.834-2.939-61.576-5.436
		c-3.658-37.208-5.528-63.533-7.412-91.491c-0.278-4.133-3.856-7.263-7.987-6.979c-4.133,0.278-7.257,3.854-6.979,7.987
		c1.979,29.373,3.944,56.958,7.967,97.165c0.293,2.933,2.278,5.422,5.072,6.362c10.373,3.489,42.903,7.392,70.915,7.392
		s60.542-3.901,70.915-7.39c2.794-0.94,4.778-3.429,5.072-6.362c4.403-43.987,6.379-73.436,8.472-104.614
		c0.49-7.296,0.99-14.743,1.532-22.56c5.023-72.408,5.878-81.98,11.432-90.368c10.895-16.437,11.21-32.905,0.89-46.37
		C322.58,126.708,323.448,113.138,324.887,90.656z"/>
</g>
<g>
</g>
<g>
</g>
<g>
</g>
<g>
</g>
<g>
</g>
<g>
</g>
<g>
</g>
<g>
</g>
<g>
</g>
<g>
</g>
<g>
</g>
<g>
</g>
<g>
</g>
<g>
</g>
<g>
</g>
</svg>
