<?xml version="1.0" encoding="iso-8859-1"?>
<!-- Generator: Adobe Illustrator 18.0.0, SVG Export Plug-In . SVG Version: 6.00 Build 0)  -->
<!DOCTYPE svg PUBLIC "-//W3C//DTD SVG 1.1//EN" "http://www.w3.org/Graphics/SVG/1.1/DTD/svg11.dtd">
<svg version="1.1" id="Capa_1" xmlns="http://www.w3.org/2000/svg" xmlns:xlink="http://www.w3.org/1999/xlink" x="0px" y="0px"
	 viewBox="0 0 400.674 400.674" style="enable-background:new 0 0 400.674 400.674;" xml:space="preserve">
<g>
	<path d="M336.91,73.586c-35.986-35.52-83.653-55.082-134.218-55.082c-0.518,0-1.036,0.01-1.522,0.02
		c-17.621,0.121-35.042,2.664-51.863,7.551c-0.618-0.661-1.236-1.322-1.878-1.964C131.88,8.563,111.208,0,89.22,0
		S46.56,8.563,31.011,24.111C17.162,37.96,8.689,56.34,7.154,75.866c-1.536,19.525,3.96,39.004,15.474,54.848l3.738,5.144
		c-9.794,23.362-14.764,48.14-14.764,73.726c0,51.517,20.193,99.819,56.862,136.008c35.996,35.52,83.666,55.082,134.228,55.082
		c50.565,0,98.231-19.562,134.218-55.082c36.668-36.189,56.862-84.491,56.862-136.008
		C393.772,158.063,373.578,109.765,336.91,73.586z M195.189,385.207c-30.094-3.602-58.063-28.719-76.646-69.033
		c23.389-12.758,49.481-20.04,76.646-21.174V385.207z M210.189,295.001c27.165,1.134,53.258,8.418,76.651,21.178
		c-18.592,40.312-46.563,65.428-76.651,69.029V295.001z M210.189,279.992v-62.907h98.37c-0.772,30.315-6.225,59.448-15.912,85.17
		C267.429,288.766,239.371,281.114,210.189,279.992z M210.189,202.085v-62.903c28.878-1.131,57.076-8.778,82.433-22.326
		c9.703,25.736,15.165,54.892,15.937,85.229H210.189z M210.189,33.975c30.05,3.602,58.038,28.699,76.632,68.983
		c-23.514,12.813-49.746,20.065-76.632,21.207V33.975z M299.749,95.169c-9.847-20.896-22.162-38.082-36.095-50.85
		c20.862,7.685,40.196,19.344,57.049,34.594C314.123,84.86,307.115,90.297,299.749,95.169z M171.285,75.866
		c-0.813-10.347-3.593-20.363-8.07-29.563c10.237-6.922,20.941-11.052,31.974-12.345v90.211c-11.047-0.463-21.974-1.96-32.661-4.453
		C169.39,106.258,172.481,91.08,171.285,75.866z M154.079,133.097c13.395,3.514,27.172,5.559,41.111,6.097v62.89h-91.247
		L154.079,133.097z M195.189,217.085v62.907c-29.181,1.121-57.237,8.771-82.451,22.257c-9.688-25.72-15.142-54.853-15.913-85.164
		H195.189z M105.616,323.956c9.845,20.916,22.163,38.121,36.105,50.899c-20.863-7.687-40.201-19.348-57.057-34.6
		C91.285,334.262,98.285,328.817,105.616,323.956z M299.768,323.961c7.328,4.86,14.327,10.302,20.947,16.292
		c-16.853,15.254-36.19,26.917-57.054,34.604C277.601,362.079,289.92,344.874,299.768,323.961z M305.773,309.976
		c10.896-27.984,16.992-59.825,17.794-92.891h55.038c-1.755,42.239-18.306,81.745-47.188,112.631
		C323.367,322.365,314.79,315.774,305.773,309.976z M378.605,202.085h-55.038c-0.802-33.076-6.903-64.927-17.807-92.918
		c9.07-5.815,17.654-12.421,25.651-19.714C360.298,120.332,376.851,159.839,378.605,202.085z M41.618,34.717
		C54.741,21.593,71.981,15.032,89.22,15.032s34.479,6.562,47.602,19.686c23.561,23.561,26.443,60.224,6.854,87.178L89.22,196.828
		l-54.457-74.932C15.175,94.941,18.058,58.278,41.618,34.717z M74.497,202.085H26.772c0.739-17.819,4.11-35.171,10.076-51.805
		L74.497,202.085z M26.77,217.085h55.047c0.802,33.064,6.9,64.904,17.795,92.886c-9.02,5.8-17.6,12.395-25.652,19.749
		C45.075,298.834,28.524,259.326,26.77,217.085z"/>
	<path d="M89.22,131.523c27.131,0,49.204-22.073,49.204-49.205S116.351,33.115,89.22,33.115c-6.844,0-13.471,1.38-19.697,4.103
		c-3.795,1.66-5.526,6.082-3.867,9.877c1.66,3.794,6.082,5.525,9.877,3.867c4.319-1.889,8.925-2.847,13.688-2.847
		c18.86,0,34.204,15.344,34.204,34.204s-15.344,34.205-34.204,34.205s-34.205-15.344-34.205-34.205c0-4.142-3.357-7.5-7.5-7.5
		s-7.5,3.358-7.5,7.5C40.015,109.45,62.088,131.523,89.22,131.523z"/>
	<path d="M48.689,63.386c2.539,6.133,11.531,5.989,13.918-0.17c2.529-6.527-4.868-12.696-10.841-9.125
		C48.598,55.985,47.326,59.974,48.689,63.386C48.88,63.846,48.51,62.936,48.689,63.386z"/>
</g>
<g>
</g>
<g>
</g>
<g>
</g>
<g>
</g>
<g>
</g>
<g>
</g>
<g>
</g>
<g>
</g>
<g>
</g>
<g>
</g>
<g>
</g>
<g>
</g>
<g>
</g>
<g>
</g>
<g>
</g>
</svg>
